<svg width="1220" height="331" viewBox="0 0 1220 331" fill="none" xmlns="http://www.w3.org/2000/svg">
<path d="M1143.12 293.131H1087.7V83.8182H1011.26V38.7578H1219.56V83.8182H1143.12V293.131Z" fill="white" fill-opacity="0.8" style="fill:white;fill-opacity:0.8;"/>
<path d="M903.955 297.392C881.4 297.392 861.879 294.004 845.387 287.226C829.139 280.205 816.528 270.403 807.555 257.817C798.825 244.987 794.459 229.98 794.459 212.795H851.935C852.42 227.56 856.423 238.209 863.939 244.745C871.7 251.039 884.796 254.186 903.226 254.186C920.93 254.186 933.42 251.886 940.695 247.287C947.97 242.688 951.609 234.821 951.609 223.686C951.609 214.73 949.183 208.195 944.332 204.081C939.725 199.724 931.117 196.213 918.506 193.552L871.579 183.749C847.569 178.907 829.261 170.556 816.65 158.697C804.281 146.835 798.096 131.829 798.096 113.675C798.096 98.1838 802.34 84.3855 810.829 72.2846C819.317 59.94 831.321 50.379 846.842 43.6017C862.605 36.5807 880.794 33.0723 901.408 33.0723C922.022 33.0723 940.21 36.4609 955.973 43.2383C971.979 50.0156 984.348 59.6963 993.078 72.2846C1002.05 84.6291 1006.54 99.0305 1006.54 115.491H949.062C948.091 100.967 943.969 90.8014 936.694 84.9905C929.418 79.1817 917.292 76.2783 900.318 76.2783C883.826 76.2783 872.185 78.5766 865.394 83.1754C858.605 87.7741 855.087 95.6418 854.846 106.776C854.846 115.005 857.149 121.299 861.757 125.657C866.608 130.014 875.581 133.522 888.675 136.186L933.421 144.898C959.127 149.741 978.527 158.211 991.623 170.314C1004.72 182.176 1011.27 197.304 1011.27 215.699C1011.27 231.432 1006.9 245.472 998.171 257.817C989.683 270.161 977.315 279.842 961.065 286.863C945.061 293.882 926.022 297.392 903.955 297.392Z" fill="white" fill-opacity="0.8" style="fill:white;fill-opacity:0.8;"/>
<path d="M716.887 293.131V130.696H656.742V89.9946L681.165 88.1774C694.287 87.2089 703.886 84.0598 709.962 78.73C716.28 73.1587 720.046 64.9214 721.261 54.0202L723.084 38.7578H770.107V293.131H716.887Z" fill="white" fill-opacity="0.8" style="fill:white;fill-opacity:0.8;"/>
<path d="M454.143 293.128V243.229L557.627 162.372C565.886 155.816 571.96 150.108 575.847 145.253C579.734 140.153 582.283 135.054 583.499 129.956C584.713 124.614 585.32 117.814 585.32 109.558C585.32 96.6887 582.649 87.8257 577.304 82.9709C571.96 78.114 562.121 75.6856 547.789 75.6856C536.856 75.9293 528.597 77.5069 523.011 80.4207C517.667 83.0928 514.023 87.706 512.079 94.2624C510.136 100.575 509.286 109.68 509.529 121.578H455.237C453.777 92.6826 461.673 70.709 478.92 55.653C496.167 40.5992 519.975 33.0723 550.34 33.0723C578.518 33.0723 600.868 39.5068 617.386 52.3759C633.905 65.0013 642.164 83.8196 642.164 108.831C642.164 126.798 637.426 142.459 627.953 155.816C618.478 168.927 602.445 183.982 579.853 200.979L534.67 235.581V250.149H645.442V293.128H454.143Z" fill="white" fill-opacity="0.8" style="fill:white;fill-opacity:0.8;"/>
<path fill-rule="evenodd" clip-rule="evenodd" d="M295.88 0C314.882 0 330.286 15.409 330.286 34.4174V244.358C330.286 246.26 328.746 247.8 326.845 247.8H223.63C221.731 247.8 220.191 249.341 220.191 251.242V326.958C220.191 328.86 218.649 330.4 216.75 330.4H34.4055C15.4037 330.4 0 314.991 0 295.983V251.699C0 249.281 1.27366 247.04 3.3462 245.797L126.962 171.599C129.769 169.914 128.828 165.762 125.82 165.254L125.201 165.2H3.44117C1.53996 165.2 0 163.66 0 161.758V86.0424C0 84.1405 1.53996 82.6 3.44117 82.6H134.179C136.078 82.6 137.62 81.0595 137.62 79.1576V3.44236C137.62 1.5405 139.16 0 141.059 0H295.88ZM141.059 82.6C139.16 82.6 137.62 84.1405 137.62 86.0424V244.358C137.62 246.26 139.16 247.8 141.059 247.8H216.75C218.649 247.8 220.191 246.26 220.191 244.358V86.0424C220.191 84.1405 218.649 82.6 216.75 82.6H141.059Z" fill="white" style="fill:white;fill-opacity:1;"/>
</svg>
